<svg width="19" height="16" viewBox="0 0 19 16" fill="none" xmlns="http://www.w3.org/2000/svg">
<path d="M17.5349 1.41452C17.0707 0.966073 16.5194 0.610337 15.9128 0.367629C15.3061 0.124922 14.6558 0 13.9991 0C13.3424 0 12.6921 0.124922 12.0854 0.367629C11.4787 0.610337 10.9275 0.966073 10.4633 1.41452L9.49976 2.34476L8.53626 1.41452C7.5985 0.509117 6.32662 0.0004693 5.00043 0.000469309C3.67423 0.000469319 2.40235 0.509117 1.46459 1.41452C0.526829 2.31992 9.88093e-09 3.5479 0 4.82833C-9.88093e-09 6.10875 0.526829 7.33674 1.46459 8.24214L2.42808 9.17238L9.49976 16L16.5714 9.17238L17.5349 8.24214C17.9994 7.79391 18.3678 7.26171 18.6192 6.67596C18.8706 6.0902 19 5.46237 19 4.82833C19 4.19428 18.8706 3.56645 18.6192 2.9807C18.3678 2.39494 17.9994 1.86275 17.5349 1.41452Z" fill="#ECECEC"/>
</svg>
