<svg width="26" height="23" viewBox="0 0 26 23" fill="none" xmlns="http://www.w3.org/2000/svg">
<path d="M22.3036 3.67974C21.766 3.14721 21.1278 2.72477 20.4253 2.43656C19.7228 2.14834 18.9699 2 18.2095 2C17.4491 2 16.6961 2.14834 15.9936 2.43656C15.2912 2.72477 14.6529 3.14721 14.1153 3.67974L12.9997 4.7844L11.8841 3.67974C10.7983 2.60458 9.32556 2.00056 7.78997 2.00056C6.25437 2.00056 4.78167 2.60458 3.69584 3.67974C2.61001 4.7549 2 6.21313 2 7.73364C2 9.25415 2.61001 10.7124 3.69584 11.7875L4.81147 12.8922L12.9997 21L21.188 12.8922L22.3036 11.7875C22.8414 11.2553 23.268 10.6233 23.5591 9.9277C23.8502 9.23212 24 8.48657 24 7.73364C24 6.98071 23.8502 6.23516 23.5591 5.53958C23.268 4.84399 22.8414 4.21201 22.3036 3.67974V3.67974Z" stroke="#B3B3B3" stroke-width="2.5" stroke-linecap="round" stroke-linejoin="round"/>
</svg>
