<svg width="40" height="40" viewBox="0 0 40 40" fill="none" xmlns="http://www.w3.org/2000/svg">
<circle cx="20" cy="20" r="20" fill="#292929"/>
<path d="M28.3807 14.5913C27.8676 14.0868 27.2583 13.6866 26.5878 13.4136C25.9172 13.1405 25.1985 13 24.4727 13C23.7468 13 23.0281 13.1405 22.3576 13.4136C21.687 13.6866 21.0778 14.0868 20.5646 14.5913L19.4997 15.6379L18.4348 14.5913C17.3983 13.5728 15.9926 13.0005 14.5268 13.0005C13.061 13.0005 11.6552 13.5728 10.6188 14.5913C9.58229 15.6099 9 16.9914 9 18.4319C9 19.8723 9.58229 21.2538 10.6188 22.2724L11.6837 23.3189L19.4997 31L27.3158 23.3189L28.3807 22.2724C28.8941 21.7681 29.3013 21.1694 29.5791 20.5105C29.857 19.8515 30 19.1452 30 18.4319C30 17.7186 29.857 17.0123 29.5791 16.3533C29.3013 15.6943 28.8941 15.0956 28.3807 14.5913Z" fill="#FFC85C"/>
</svg>
