<svg xmlns="http://www.w3.org/2000/svg" xmlns:xlink="http://www.w3.org/1999/xlink" width="64" height="64" viewBox="0 0 1727 1727">
  <defs>
    <clipPath id="clip-아트보드_5">
      <rect width="1727" height="1727"/>
    </clipPath>
  </defs>
  <g id="아트보드_5" data-name="아트보드 – 5" clip-path="url(#clip-아트보드_5)">
    <rect width="1727" height="1727" fill="#fff"/>
    <rect id="사각형_1549" data-name="사각형 1549" width="1727" height="1727" fill="#ececec"/>
    <g id="그룹_119" data-name="그룹 119" transform="translate(-1650.699 8782.999)">
      <path id="패스_61" data-name="패스 61" d="M736.408,689.869c-4.623-17.684-8.744-36.609-14.639-55.228-8.184-25.851-17.047-51.61-26.791-77.165-17.014-44.624-43.925-86.079-78.993-124.4-34.223-37.4-77.2-67.6-137.112-81.914-10.256-2.45-20.911-3.993-34.072-6.461,11.994-2.275,22.067-3.813,31.818-6.1,59.97-14.044,103.055-43.988,138.166-80.984,37.566-39.584,63.5-83.452,81.114-129.676C712.182,85.205,725,41.75,738.884,0c2.689,10.965,5.754,24.056,9.121,37.105,19.056,73.847,47.547,145.265,102.24,209.6,32.188,37.861,72.648,69.541,129.964,87.033,15.2,4.638,31.471,7.35,49.11,11.37C949.824,355.272,896.8,390.651,854.906,437.13c-38.278,42.463-64.193,89.121-81.882,138.116C759.27,613.34,748.393,652,736.408,689.869" transform="translate(1779 -8740.998)" fill="#dadada"/>
      <path id="패스_62" data-name="패스 62" d="M126.7,1258.857q0-261.9,0-523.8c0-29.25.958-31.446,20.724-35.236,84.634-16.23,169.623-17.12,254.654-9.357,89.2,8.143,177.393,33.505,262.7,73.436,16.993,7.954,33.563,17.765,50.259,26.972,12.357,6.815,24.624,9.983,37.459,2.186,82.879-50.351,170.339-81.6,259.294-94.825,99.943-14.862,200.024-16.709,300.094-.984,32.6,5.123,32.634,4.692,32.634,51.955,0,344.621,0,418.853,0,763.474,0,33.3-2.331,36.172-25.383,32.786-167.095-24.54-332.352-4.007-494.918,58.965-24.3,9.413-47.453,24.726-71.666,34.72-9.9,4.086-22.635,6.19-31.651.87-100.28-59.177-205.754-90.448-312.967-101.392-86.828-8.864-173.655-7.929-260.222,7.392-17.121,3.029-20.989-2.312-20.994-27.871-.036-176.561-.019-82.733-.021-259.294" transform="translate(1779 -8740.998)" fill="#dadada"/>
    </g>
  </g>
</svg>
