<svg width="28" height="25" viewBox="0 0 28 25" fill="none" xmlns="http://www.w3.org/2000/svg">
<path d="M24.1494 3.85062C23.5629 3.26392 22.8667 2.79851 22.1003 2.48097C21.334 2.16344 20.5126 2 19.6831 2C18.8535 2 18.0321 2.16344 17.2658 2.48097C16.4994 2.79851 15.8032 3.26392 15.2167 3.85062L13.9997 5.06767L12.7826 3.85062C11.5981 2.66608 9.99152 2.00061 8.31633 2.00061C6.64114 2.00061 5.03455 2.66608 3.85001 3.85062C2.66547 5.03517 2 6.64175 2 8.31694C2 9.99214 2.66547 11.5987 3.85001 12.7833L5.06705 14.0003L13.9997 22.9329L22.9323 14.0003L24.1494 12.7833C24.7361 12.1968 25.2015 11.5006 25.519 10.7342C25.8366 9.96787 26 9.14647 26 8.31694C26 7.48742 25.8366 6.66602 25.519 5.89967C25.2015 5.13333 24.7361 4.43705 24.1494 3.85062V3.85062Z" stroke="white" stroke-width="2.5" stroke-linecap="round" stroke-linejoin="round"/>
</svg>
