<svg xmlns="http://www.w3.org/2000/svg" xmlns:xlink="http://www.w3.org/1999/xlink" width="64" height="64" viewBox="0 0 1727 1727">
  <defs>
    <clipPath id="clip-아트보드_4">
      <rect width="1727" height="1727"/>
    </clipPath>
  </defs>
  <g id="아트보드_4" data-name="아트보드 – 4" clip-path="url(#clip-아트보드_4)">
    <rect width="1727" height="1727" fill="#fff"/>
    <rect id="사각형_1549" data-name="사각형 1549" width="1727" height="1727" fill="#ececec"/>
    <path id="패스_63" data-name="패스 63" d="M1103.666,3105.663C977.119,2910.9,748.378,2808.056,515.4,2839.729c-147.553,20.06-272.31,85.426-371.258,197.084C49.586,3143.516,1.67,3269.042.021,3411.761c-.662,57.367,14.1,111.755,34.875,164.694,28.382,72.336,67.405,138.952,110.277,203.431,65.685,98.788,140.246,190.787,216.178,281.723q108.384,129.8,216.758,259.609c5.761,6.907,11.161,14.114,17.055,21.729a3.22,3.22,0,0,0,5.008.112l.017-.02c69.037-83.262,137.773-166.776,207.187-249.723,76.015-90.835,151.694-181.91,219.415-279.239,49.449-71.07,94.954-144.44,128.319-224.691,23.493-56.5,40.421-114.677,40.114-176.5-.552-111.25-30.92-213.9-91.558-307.224M732.25,3555.339c-43.732,48.512-73.339,101.818-93.548,157.792-15.714,43.523-28.14,87.691-41.832,130.955-5.283-20.2-9.99-41.825-16.725-63.1-9.35-29.534-19.475-58.962-30.608-88.158-19.438-50.983-50.183-98.342-90.248-142.127-39.1-42.73-88.2-77.23-156.646-93.585-11.717-2.8-23.89-4.563-38.926-7.381,13.7-2.6,25.211-4.357,36.351-6.966,68.515-16.043,117.738-50.254,157.851-92.521,42.918-45.224,72.55-95.342,92.67-148.15,18.6-48.826,33.248-98.472,49.109-146.172,3.072,12.529,6.574,27.484,10.421,42.391,21.77,84.37,54.321,165.963,116.806,239.463,36.773,43.257,83,79.45,148.48,99.435,17.359,5.3,35.954,8.4,56.106,12.99-90.821,11.611-151.393,52.03-199.261,105.132" transform="translate(266 -2726.064)" fill="#dadada"/>
  </g>
</svg>
