<svg xmlns="http://www.w3.org/2000/svg" xmlns:xlink="http://www.w3.org/1999/xlink" width="64" height="64" viewBox="0 0 1727 1727">
  <defs>
    <clipPath id="clip-아트보드_3">
      <rect width="1727" height="1727"/>
    </clipPath>
  </defs>
  <g id="아트보드_3" data-name="아트보드 – 3" clip-path="url(#clip-아트보드_3)">
    <rect width="1727" height="1727" fill="#fff"/>
    <rect id="사각형_1549" data-name="사각형 1549" width="1727" height="1727" fill="#ececec"/>
    <g id="그룹_118" data-name="그룹 118" transform="translate(-2394.809 4105.936)">
      <path id="패스_57" data-name="패스 57" d="M1515.86,5777.47c-3.142-119.677-73.79-228.34-174.786-286.669a23.736,23.736,0,0,0-30.122,5.409c-63.743,77.072-108.025,160.833-138.993,248.457-15.582,44.089-29.214,88.563-42.512,132.872a23.727,23.727,0,0,1-22.731,16.9h-4a23.725,23.725,0,0,1-22.811-17.374q-2.445-8.688-5.117-17.356c-15.517-50.07-32.32-99.957-50.793-149.453-29.215-78.276-73.86-151.5-131.41-219.757a23.8,23.8,0,0,0-29.3-5.662c-106.764,56.4-181.033,165.5-185.423,292.548-5.7,164.811-1.645,224.958-1.732,389.957v.142a14.843,14.843,0,0,0,14.842,14.721h810.941a15.417,15.417,0,0,0,15.362-14.325c.063-.872.1-1.733.1-2.6-.135-164.277,2.8-223.639-1.509-387.81" transform="translate(1779 -8740.998)" fill="#dadada"/>
      <path id="패스_58" data-name="패스 58" d="M2282.24,5777.47c-3.26-124.213-79.244-236.556-186.4-293.076a23.644,23.644,0,0,0-29.52,6.29c-57.876,73.284-98.826,152.348-127.979,234.835-16.469,46.6-30.761,93.629-44.782,140.439a23.5,23.5,0,0,1-22.516,16.751h0a23.452,23.452,0,0,1-22.654-17.231c-2.263-8.314-4.652-16.633-7.221-24.922-15.517-50.07-32.319-99.958-50.793-149.453-27.244-73-67.912-141.593-119.942-205.874a23.786,23.786,0,0,0-28.8-6.419q-11.57,5.574-22.655,11.949a23.789,23.789,0,0,0-8.675,32.776c39.2,66.169,62.677,141.784,64.753,220.9,4.612,175.671,3.213,246.5,2.438,422.309a15.4,15.4,0,0,0,15.4,15.46h575.4a15.418,15.418,0,0,0,15.362-14.322c.064-.873.1-1.735.1-2.6-.135-164.277,2.8-223.639-1.509-387.81" transform="translate(1779 -8740.998)" fill="#dadada"/>
      <path id="패스_59" data-name="패스 59" d="M1102.989,5646.847c-5.575-21.322-10.543-44.14-17.65-66.59-9.868-31.169-20.554-62.226-32.3-93.038-20.515-53.805-52.962-103.785-95.244-150-41.262-45.1-93.082-81.5-165.317-98.765-12.366-2.955-25.212-4.815-41.081-7.789,14.462-2.744,26.606-4.6,38.364-7.352,72.306-16.931,124.254-53.035,166.588-97.643,45.294-47.726,76.565-100.619,97.8-156.35,19.633-51.529,35.089-103.923,51.828-154.263,3.242,13.223,6.938,29.006,11,44.738,22.975,89.039,57.327,175.149,123.271,252.718,38.809,45.651,87.592,83.847,156.7,104.938,18.321,5.592,37.945,8.862,59.212,13.709-95.848,12.255-159.773,54.911-210.291,110.952-46.152,51.2-77.4,107.454-98.726,166.527-16.584,45.931-29.7,92.544-44.148,138.2" transform="translate(1779 -8740.998)" fill="#dadada"/>
      <path id="패스_60" data-name="패스 60" d="M1869.369,5646.847c-5.574-21.322-10.543-44.14-17.65-66.59-9.868-31.169-20.554-62.226-32.3-93.038-20.515-53.805-52.962-103.785-95.244-150-41.262-45.1-93.082-81.5-165.317-98.765-12.365-2.955-25.212-4.815-41.081-7.789,14.462-2.744,26.607-4.6,38.364-7.352,72.307-16.931,124.254-53.035,166.588-97.643,45.294-47.726,76.566-100.619,97.8-156.35,19.633-51.529,35.089-103.923,51.828-154.263,3.242,13.223,6.938,29.006,11,44.738,22.976,89.039,57.328,175.149,123.271,252.718,38.809,45.651,87.592,83.847,156.7,104.938,18.321,5.592,37.945,8.862,59.211,13.709-95.847,12.255-159.773,54.911-210.29,110.952-46.152,51.2-77.4,107.454-98.726,166.527-16.584,45.931-29.7,92.544-44.148,138.2" transform="translate(1779 -8740.998)" fill="#dadada"/>
    </g>
  </g>
</svg>
